Patient4_TMGait_0pt5_01_right_37_EMG.mot
version=1
nRows=30
nColumns=33
inDegrees=no
endheader
time	1LAddLong	2LGlutMax	3LGlutMed	4LIliopsoas	5LSemiMemb	6LBicFemLong	7LRecFem	8LVastMed	9LVastLat	10LGasMed	11LTibAnt	12lTibPost	13LPeroneusLong	14LSol	15LExtDigLong	16LFlexDigLong	17RAddLong	18RGlutMax	19RGlutMed	20RIliopsoas	21RSemiMemb	22RBicFemLong	23RRecFem	24RVastMed	25RVastLat	26RGasMed	27RTibAnt	28RTibPost	29RPeroneusLong	30RSol	31RExtDigLong	32RFlexDigLong
49.575	0.003204	-0.17944	0.056152	0.014038	0.006104	-0.28091	0.078278	0.014343	0.11215	-0.010986	-0.047913	0.009766	-0.098419	-0.066528	-0.062561	0.00885	-0.014496	0.072327	0.075226	-0.004272	-0.10773	-0.01236	-0.087433	-0.031891	-0.011139	-0.010529	0.056	0.014191	0.004272	-0.31799	-0.005798	-0.032501
49.576	-0.00351	-0.31738	0.041656	0.014191	0.014191	-0.26794	0.10971	0.000763	0.15335	0.030365	-0.016937	0.011597	-0.078125	-0.11124	-0.056152	0.009918	-0.03418	0.073395	-0.015717	0	-0.23071	0.052338	-0.06424	0.002441	-0.02243	0.055084	0.021667	-0.036469	0.21866	-0.27145	0.003662	-0.032196
49.577	0.000763	-0.37643	0.008087	0.011597	-0.013123	-0.14648	0.1001	-0.006104	-0.000458	0.027466	-0.02182	0.013275	-0.016174	-0.088043	-0.049286	0.018158	-0.010529	0.032349	-0.033112	-0.022125	0.084839	0.18707	-0.073395	0.074615	0.011902	0.059662	0.054321	0.073395	0.1178	0.29083	-0.002441	-0.026093
49.578	0.00946	-0.3624	0.014191	-0.000458	0.033569	-0.16235	0.063477	-0.005341	-0.19775	0.016632	0	0.1767	-0.016022	-0.072632	-0.002136	0.009308	0.006104	0.11719	0.046234	-0.083923	0.21805	0.050659	-0.14969	0.084991	0.029755	0.06012	0.044556	0.016327	-0.027924	0.82489	0.000458	-0.028992
49.579	0.005188	-0.36758	0.056915	0.01297	0.032349	-0.41031	0.09491	-0.003204	-0.24185	0.045013	0.00824	0.033264	0.049744	-0.053406	0.002594	0.023499	0.020294	0.19516	-0.17166	-0.049133	0.016327	-0.14053	-0.12802	0.068359	0.007629	0.014038	0.016327	-0.055695	-0.13107	1.0034	-0.002899	-0.025177
49.58	0.013885	-0.38345	0.060425	0.015106	0.005798	-0.52231	0.12589	-0.005188	-0.12817	0.009766	0.03479	-0.017548	0.078888	-0.023346	-0.023499	0.030212	0.013275	0.063782	-0.13458	0.020142	-0.16083	-0.028687	-0.048981	0.027618	-0.028687	-0.023651	0.073853	0.022736	-0.11627	0.93475	0.007019	-0.017242
49.581	0.007629	-0.39536	0.009308	-0.005035	-0.043335	-0.49744	0.1059	0.005798	-0.028992	-0.00824	0.014648	-0.015106	0.041809	-0.035095	-0.006866	0.03418	-0.033569	0.1741	0.083313	0.052185	0.10284	0.13214	-0.04837	0.068054	-0.037231	-0.016327	0.1268	0.099182	-0.13016	0.6839	-0.001831	-0.024872
49.582	0.009155	-0.50491	-0.036011	-0.003052	-0.089874	-0.31616	0.099335	0.009918	-0.028687	0.082397	0.00473	0.001373	0.028381	-0.026703	0.02533	0.033722	-0.011139	0.27145	0.22247	0.053101	0.22964	0.19867	-0.029297	0.021515	-0.024109	-0.010071	0.32898	0.030518	-0.00824	0.37186	-0.000305	-0.018463
49.583	0.005951	-0.56808	-0.008545	-0.002289	-0.066681	-0.009003	0.076447	0.025177	0.048523	0.32166	0.014496	0.013123	0.050659	0.018616	0.056763	0.02243	-0.000916	0.2948	0.06897	0.068054	0.26718	0.13809	-0.044861	-0.042114	-0.048828	0.010223	0.37827	-0.006256	0.10422	0.033875	-0.001678	-0.012665
49.584	-0.010376	-0.52246	0.056	0.017853	-0.071106	0.20294	0.096283	0.01297	0.12787	0.46097	0.049133	0.028687	0.020142	0.053711	0.068817	0.027771	0.039215	0.33234	0.17746	0.046082	0.36819	0.095978	-0.022278	-0.047455	-0.038605	-0.016479	0.26016	-0.014801	0.090637	-0.27145	-0.004425	-0.010986
49.585	-0.004272	-0.47897	0.078583	0.01236	-0.049744	0.27908	0.058899	0.010986	0.10559	0.13626	0.052643	0.034943	-0.00473	0.053558	0.073242	0.013428	0.088806	0.30853	-0.085754	-0.000916	0.37445	0.056458	-0.12177	-0.12177	-0.026703	-0.027618	0.26306	-0.014954	0.05661	-0.37857	-0.00061	-0.006104
49.586	-0.007477	-0.43213	0.074463	0.003967	-0.077209	0.32044	0.057373	0.021057	-0.001068	0.045166	0.023346	0.042725	0.013733	0.056763	0.067444	0.018921	0.059357	0.34576	-0.24933	0.068512	0.071106	0.020447	-0.32394	-0.12665	0.013123	-0.00885	0.24735	-0.016327	-0.053864	-0.29037	-0.001678	0.001984
49.587	0.003815	-0.39932	0.064392	0.013275	-0.018158	0.2179	0.060272	-0.002441	-0.023499	-0.016785	0.008087	0.046539	-0.020142	0.01297	0.045013	0.027466	-0.020142	0.3096	-0.14084	0.11551	-0.50446	0.015106	-0.33234	-0.051727	0.007782	0.007782	0.3389	-0.010834	-0.06485	-0.094757	-0.001831	-0.002289
49.588	0.007782	-0.33981	0.022278	0.011139	0.062408	0.14603	0.089264	0.001831	0.10742	0.08667	-0.014038	0.045776	-0.036774	0.010681	0.052795	0.016327	-0.051422	0.37186	0.13062	0.095367	-0.39917	-0.13214	-0.21042	-0.012054	-0.024872	0.007172	0.044861	-0.011597	-0.000153	-0.093689	-0.009003	-0.015259
49.589	0.016632	-0.31387	-0.040894	0.023041	0.074463	0.15137	0.082855	0.005188	0.1207	0.005493	-0.013428	0.053711	0.029907	0.10208	0.080414	0.012207	-0.039673	0.41397	0.090942	0.034637	-0.26154	-0.11063	-0.1358	0.086823	-0.006256	0.008392	-0.41489	-0.007629	0.014343	-0.089569	-0.002136	-0.013885
49.59	-0.005493	-0.29495	-0.082092	0.010681	0.008698	0.090027	0.10971	0.005493	0.09552	-0.14557	-0.002594	0.038605	0.037079	0.11551	0.063629	0.00473	-0.030975	0.51148	0.31265	-0.056305	-0.30029	0.008392	-0.13977	0.10971	-0.009613	-0.00061	-0.54199	-0.010071	0.023346	-0.066071	-0.003662	-0.006256
49.591	-0.00824	-0.32455	-0.079956	0.003815	-0.040588	0.071411	0.11673	0.014343	0.054474	-0.046387	-0.007629	0.049896	0.016785	0.15823	0.041199	0.010376	0.032806	0.41061	0.37628	-0.070038	0.079956	-0.05661	-0.17425	0.053406	0.005035	-0.016632	-0.48737	-0.008545	-0.032654	-0.06897	-0.005188	-0.019379
49.592	-0.021515	-0.32516	-0.093231	0.002441	-0.018311	-0.2475	0.096893	0.001373	0.070953	-0.097504	-0.020294	0.041962	-0.051727	0.27542	0.032654	0.00473	0.077057	0.44189	0.23636	-0.045776	0.03418	-0.17487	-0.19913	0.005798	0.011749	-0.013275	-0.1944	-0.005493	-0.088654	-0.13931	-0.002747	-0.021515
49.593	-0.016022	-0.27954	-0.13489	0.003204	0.03418	-0.52521	0.094604	0.001221	0.095978	-0.055695	-0.011444	0.035095	0.11124	0.25971	-0.045624	-0.003662	0.06546	0.49957	-0.12604	0.025635	-0.0737	-0.11215	-0.24841	-0.020294	0.010834	0.000763	0.55466	-0.009766	0.016022	-0.11093	-0.002899	-0.02182
49.594	0	-0.22888	-0.095825	0.003357	0.03067	-0.50705	0.13672	0.009155	0.10468	-0.068512	0.002441	0.044556	-0.03891	0.21332	-0.1886	-0.007324	0.042419	0.5545	-0.12131	0.027466	-0.1268	0.041046	-0.26855	0.014954	0.006104	0.011139	0.29068	-0.007629	0.090332	-0.089264	0.001221	-0.026855
49.595	0.016479	-0.1535	-0.037231	0.005493	0.010986	-0.41336	0.17868	0.007782	0.10773	-0.021362	0.024567	0.031281	-0.11505	0.19959	-0.30456	-0.002136	0.046844	0.39078	0.12863	0.03067	-0.11246	0.13016	-0.24094	0.063934	-0.022125	0.012817	-0.35309	-0.005951	0.12344	-0.071106	-0.001831	-0.021362
49.596	0.014954	-0.06546	0.007324	0.005341	0.039368	-0.22842	0.29739	0.007782	0.071564	-0.013733	0.034943	0.032959	0.10254	0.24139	-0.30731	-0.006866	0.057678	0.42404	0.12924	0.036469	-0.090942	0.052338	-0.22553	0.032806	-0.027924	-0.001373	-0.57465	-0.007629	0.061951	0.059509	-0.00351	-0.02121
49.597	0.016327	-0.039673	0.048218	0.012207	0.030975	-0.24658	0.25742	0.008545	0.10498	-0.001526	0.032501	0.022583	0.14023	0.24109	-0.31693	0.003815	0.016632	0.50201	0.068359	0.073547	-0.044098	0.055389	-0.22232	-0.019531	-0.026703	-0.00061	-0.56305	-0.00351	0.10757	0.14771	0.001068	-0.021362
49.598	-0.002136	0.028687	0.046844	0.010529	-0.012817	-0.2742	0.26627	0.012054	0.098419	-0.02182	0.034637	0.020447	0.1329	0.20233	-0.19562	0.000153	-0.046844	0.54749	-0.062256	0.035858	-0.1152	-0.029602	-0.23666	0.010071	-0.028687	-0.011597	-0.4245	-0.001526	0.061035	0.20203	-0.002441	-0.02533
49.599	-0.005493	0.093079	0.053711	0.008392	0.010834	-0.14786	0.21362	0.012207	0.050201	-0.10193	0.026703	0.01709	0.024567	0.12161	0.093994	-0.000763	-0.103	0.50522	0.38116	-0.07782	-0.29877	0.041046	-0.22644	0.06012	-0.003052	-0.013428	-0.39398	-0.00351	-0.012054	0.14923	-0.001831	-0.030212
49.6	-0.019073	0.13504	0.10696	0.013885	0.035706	0.015564	0.11307	0.01297	0.083771	-0.020752	0.029449	0.016479	0.4364	0.13702	0.38361	-0.008545	-0.078278	0.46478	-0.11704	-0.22278	-0.026855	0.099182	-0.20721	0.072632	-0.002594	-0.010681	-0.51514	-0.008087	0.028229	0.2446	-0.005341	-0.020447
49.601	-0.02655	0.18005	0.19241	0.014648	0.005035	0.25879	0.038147	0.02533	-0.059967	0.057526	0.035248	0.014496	0.30945	0.28137	0.46768	-0.015106	-0.007629	0.38238	-0.006561	-0.20798	-0.062866	-0.047302	-0.22781	-0.013275	-0.006866	0.00061	-0.32044	-0.002441	0.11871	0.35339	0.000153	-0.019073
49.602	-0.030212	0.21225	0.2153	0.02533	-0.01236	0.20508	0.088043	0.031433	-0.26306	0.063629	0.034332	0.002899	0	0.30121	0.35065	-0.00412	0.011902	0.32593	0.041046	-0.053253	-0.15076	-0.12573	-0.24704	-0.016327	-0.001984	-0.010376	0.17273	-0.003357	0.062714	0.19348	-0.002136	-0.022583
49.603	-0.037994	0.27329	0.21805	0.020142	0.0177	0.091095	0.23468	0.025024	-0.37598	0.024414	0.015411	-0.000153	0.074921	0.27466	0.24155	-0.00946	0.026855	0.38528	-0.030975	0.18021	-0.16419	-0.35339	-0.25833	0.002441	-0.009613	-0.015717	0.57175	-0.003662	0.14267	-0.002289	-0.001373	-0.020447
49.604	-0.016022	0.30182	0.19974	0.007935	-0.09613	0.053101	0.27847	0.03479	-0.2066	-0.13168	0.000153	-0.010529	-0.27451	0.16739	0.14725	-0.023193	0.004578	0.37567	0.14648	0.28748	0.060272	-0.24902	-0.21988	0.028381	-0.017395	-0.007324	0.84457	-0.014801	0.19867	-0.030212	-0.006104	-0.016785
